1.9Hzhigh3min_grf.mot
version=1
nRows=22
nColumns 19
inDegrees=yes
endheader
time	1_ground_force_vx	1_ground_force_vy	1_ground_force_vz	1_ground_force_px	1_ground_force_py	1_ground_force_pz	1_ground_torque_x	1_ground_torque_y	1_ground_torque_z	2_ground_force_vx	2_ground_force_vy	2_ground_force_vz	2_ground_force_px	2_ground_force_py	2_ground_force_pz	2_ground_torque_x	2_ground_torque_y	2_ground_torque_z
            3.751500	          -20.817690	         1029.889966	          -88.026352	           -0.267348	            0.006233	           -0.409215	           -0.023920	            1.183360	           -0.101144	          -42.441745	         1007.781995	           84.893391	           -0.235252	            0.005647	           -0.701175	           -0.043603	            1.035355	            0.087216
            3.752000	          -20.265215	         1021.956688	          -87.694881	           -0.267363	            0.006234	           -0.409346	           -0.020294	            1.023391	           -0.087818	          -41.523890	         1000.052608	           84.396135	           -0.235202	            0.005646	           -0.701015	           -0.044066	            1.061267	            0.089562
            3.752500	          -19.574595	         1015.644407	          -86.989947	           -0.267137	            0.006233	           -0.409180	           -0.015786	            0.819092	           -0.070155	          -40.515134	          993.061415	           83.572979	           -0.235125	            0.005646	           -0.700967	           -0.041865	            1.026145	            0.086357
            3.753000	          -19.434566	         1008.792236	          -86.515257	           -0.267137	            0.006233	           -0.409104	           -0.011614	            0.602828	           -0.051699	          -39.876464	          984.779199	           82.886158	           -0.235165	            0.005646	           -0.700936	           -0.040185	            0.992397	            0.083527
            3.753500	          -18.652535	         1002.119970	          -85.949652	           -0.267022	            0.006233	           -0.409000	           -0.012409	            0.666689	           -0.057180	          -39.387736	          979.075358	           82.020884	           -0.235138	            0.005647	           -0.701099	           -0.037372	            0.928962	            0.077823
            3.754000	          -17.777553	          994.724694	          -84.928831	           -0.267162	            0.006233	           -0.409045	           -0.015210	            0.851080	           -0.072665	          -38.938355	          971.344112	           81.570748	           -0.235071	            0.005647	           -0.700956	           -0.040387	            1.007491	            0.084606
            3.754500	          -17.361434	          986.609249	          -84.139225	           -0.267013	            0.006233	           -0.409041	           -0.016515	            0.938488	           -0.080035	          -37.975164	          963.984803	           80.652441	           -0.235094	            0.005647	           -0.700974	           -0.040381	            1.025048	            0.085761
            3.755000	          -17.082702	          979.574842	          -83.207082	           -0.267060	            0.006233	           -0.409049	           -0.014515	            0.832315	           -0.070699	          -37.015171	          957.545132	           80.018972	           -0.235003	            0.005647	           -0.701104	           -0.043389	            1.122431	            0.093798
            3.755500	          -16.622974	          973.085170	          -83.190195	           -0.266975	            0.006232	           -0.408894	           -0.010419	            0.609886	           -0.052140	          -36.192610	          950.185986	           78.913013	           -0.235086	            0.005647	           -0.701105	           -0.044006	            1.155309	            0.095949
            3.756000	          -15.977513	          965.510265	          -82.307133	           -0.267012	            0.006233	           -0.408988	           -0.007268	            0.439211	           -0.037442	          -35.277454	          943.193495	           78.324528	           -0.235060	            0.005647	           -0.701114	           -0.039983	            1.069000	            0.088772
            3.756500	          -15.516679	          959.198800	          -81.830906	           -0.266834	            0.006232	           -0.408802	           -0.004631	            0.286288	           -0.024424	          -34.642669	          936.015409	           77.876283	           -0.235054	            0.005648	           -0.701217	           -0.036517	            0.986657	            0.082090
            3.757000	          -14.917028	          951.443590	          -80.948504	           -0.266775	            0.006232	           -0.408832	           -0.005796	            0.369669	           -0.031451	          -33.819967	          928.655090	           77.098813	           -0.234969	            0.005647	           -0.701013	           -0.033655	            0.924125	            0.076723
            3.757500	          -14.364437	          942.248801	          -80.668296	           -0.266703	            0.006233	           -0.409066	           -0.007888	            0.517402	           -0.044296	          -33.325794	          921.476998	           76.509851	           -0.234859	            0.005648	           -0.701166	           -0.038191	            1.056015	            0.087681
            3.758000	          -14.085627	          936.655930	          -79.592398	           -0.266772	            0.006232	           -0.408791	           -0.007177	            0.477283	           -0.040557	          -32.685192	          912.642923	           75.680283	           -0.234935	            0.005647	           -0.700916	           -0.041840	            1.168261	            0.096877
            3.758500	          -13.670064	          929.082038	          -78.983912	           -0.266763	            0.006231	           -0.408722	           -0.006828	            0.464054	           -0.039451	          -31.628862	          905.467195	           74.997226	           -0.234939	            0.005648	           -0.701108	           -0.042164	            1.207070	            0.099978
            3.759000	          -13.070054	          920.605372	          -78.012882	           -0.266885	            0.006232	           -0.408883	           -0.002798	            0.197102	           -0.016703	          -30.620110	          898.476002	           74.174054	           -0.234953	            0.005648	           -0.701096	           -0.038676	            1.134854	            0.093688
            3.759500	          -12.700400	          913.392063	          -77.402736	           -0.266697	            0.006232	           -0.408791	           -0.000201	            0.014484	           -0.001227	          -30.122697	          890.377815	           73.394094	           -0.234892	            0.005647	           -0.701007	           -0.038185	            1.128698	            0.093039
            3.760000	          -11.873731	          905.820807	          -77.391381	           -0.266688	            0.006232	           -0.408873	           -0.000115	            0.008788	           -0.000751	          -29.347569	          883.201909	           72.476524	           -0.234839	            0.005648	           -0.701030	           -0.033755	            1.015835	            0.083361
            3.760500	          -10.999268	          898.786909	          -76.552437	           -0.266625	            0.006231	           -0.408700	           -0.001242	            0.101485	           -0.008644	          -28.336716	          875.657397	           71.886029	           -0.234862	            0.005648	           -0.701066	           -0.033205	            1.026091	            0.084236
            3.761000	          -10.262756	          891.573475	          -75.897334	           -0.266438	            0.006231	           -0.408566	           -0.003326	            0.288902	           -0.024593	          -27.887964	          868.110017	           71.530406	           -0.234807	            0.005648	           -0.700954	           -0.035959	            1.119347	            0.092232
            3.761500	          -10.168387	          884.360506	          -75.378209	           -0.266219	            0.006230	           -0.408412	           -0.002773	            0.241209	           -0.020559	          -27.113398	          861.117354	           70.848125	           -0.234700	            0.005649	           -0.701141	           -0.036418	            1.156645	            0.095163
            3.762000	           -9.843193	          876.423963	          -74.266621	           -0.266478	            0.006231	           -0.408563	           -0.000454	            0.040455	           -0.003428	          -26.480270	          854.310348	           69.650360	           -0.234734	            0.005648	           -0.701079	           -0.041322	            1.333121	            0.108687
